<?xml version="1.0" encoding="utf-8"?>
<!-- Generator: Adobe Illustrator 18.1.1, SVG Export Plug-In . SVG Version: 6.00 Build 0)  -->
<svg version="1.1" xmlns="http://www.w3.org/2000/svg" xmlns:xlink="http://www.w3.org/1999/xlink" x="0px" y="0px"
	 viewBox="0 0 612 792" enable-background="new 0 0 612 792" xml:space="preserve">
<g id="Toilet_Bowl">
	<path fill="#FFFFFF" stroke="#FFFFFF" stroke-width="4" stroke-miterlimit="10" d="M550.9,587H293c0,0-1.2,97,138.2,96
		S550.9,587,550.9,587z"/>
	<path fill="#FFFFFF" stroke="#FFFFFF" stroke-width="4" stroke-miterlimit="10" d="M341.4,647.4l16.6,111.7h172.5l45-111.7
		c0,0,13.5,5.2,13.5-18.8c0-24,0-277.5,0-277.5h-25.5v165.8c0,0,0.9,10.1-4.1,11.6S542,532,542,587L341.4,647.4z"/>
</g>
<g id="Body_x2F_Head">
	<circle fill="#FFFFFF" cx="274" cy="117.8" r="95.8"/>
	<path fill="#FFFFFF" stroke="#FFFFFF" stroke-width="15" stroke-miterlimit="10" d="M357.6,215.3c0,0-40.2-4-43.2,39.5
		c-3,43.5,29.1,140.9,29.1,140.9l43.7,118c0,0,20.3,40.9,45.2,44.6c24.9,3.7,61,11.9,68.6-8.8c7.5-20.7,14.1-55.3,16.6-76.7
		c2.5-21.4-20-122.6-62.2-188.8S357.6,215.3,357.6,215.3z"/>
</g>
<g id="PracticeArm">
	<g>
		<g>
			<path fill="#FFFFFF" d="M308.5,239.9c-0.8,1.8-1.5,3.7-2.3,5.5c1-2.4,2-4.8,3-7.2c-10.8,25.6-22.7,50.8-37.6,74.3
				c-2.8,4.5-5.7,8.9-8.8,13.2c-1.5,2.1-3.2,4-4.5,6.1c-0.5,0.8,4.9-6.2,3-3.8c-0.4,0.4-0.7,0.9-1,1.3c-0.8,1-1.6,2-2.4,2.9
				c-5.2,6.3-10.9,12.2-17.2,17.4c-1.1,0.9-4.5,3.5,0.4-0.2c4.9-3.7,1.6-1.2,0.4-0.4c-1.5,1.1-3,2.1-4.6,3.1c-3.1,1.9-6.3,3.6-9.6,5
				c2.4-1,4.8-2,7.2-3c-4.4,1.8-9,3.1-13.8,3.8c2.7-0.4,5.3-0.7,8-1.1c-4.2,0.5-8.5,0.5-12.7,0c2.7,0.4,5.3,0.7,8,1.1
				c-5.1-0.7-10-2.1-14.7-4.1c2.4,1,4.8,2,7.2,3c-7.3-3.1-13.8-7.5-20.2-12.1c-5.1-3.7,5.1,4.1,1.5,1.2c-1-0.8-2-1.6-3.1-2.5
				c-2.4-2-4.8-4-7.1-6.1c-4.6-4.1-9.1-8.4-13.4-12.8c-14.8-14.9-28.4-30.9-41.4-47.4c-3-3.8,5.1,6.7,2.3,3c-0.5-0.6-1-1.3-1.4-1.9
				c-0.8-1.1-1.7-2.2-2.5-3.3c-0.7-1-1.5-1.9-2.2-2.9c-4.7-6.5-9.9-11.6-17.9-13.8c-7.2-2-16.7-1.1-23.1,3
				c-12.6,8.1-20.6,27.4-10.8,41c12.1,16.8,25.3,33,39.2,48.4c10.3,11.5,21.1,22.5,32.8,32.6c10.6,9.1,22.1,18.5,34.9,24.4
				c19.7,9.1,41.5,12.8,62.5,5.7c23.2-7.8,42.1-24,57.2-43c27.3-34.5,45.8-74.1,62.6-114.6c2.8-6.7,0.4-17.2-3-23.1
				c-3.6-6.2-10.8-12.2-17.9-13.8c-7.7-1.7-16.3-1.4-23.1,3C315.3,226.5,311.7,232.3,308.5,239.9L308.5,239.9z"/>
		</g>
	</g>
	
		<rect x="62.9" y="177.3" transform="matrix(0.771 -0.6369 0.6369 0.771 -140.4449 98.8467)" fill="#FFFFFF" stroke="#FFFFFF" stroke-width="4" stroke-miterlimit="10" width="8.5" height="134.9"/>
</g>
<g id="Legs">
	<g>
		<g>
			<path fill="#FFFFFF" d="M468.4,478.8c-66-6.1-133.6-12.5-199.2,0.8c-27.2,5.5-54.8,15.9-77,32.8c-7.6,5.8-15.1,11.5-21.8,18.4
				c-6.7,6.9-12.6,14.7-18.2,22.5c-9.8,13.7-16.7,29.3-22.5,45c-7.5,20.2-10.7,41.3-13.3,62.6c-2.7,22.1-2.9,44.5-1.9,66.7
				c0.5,11.9,4.7,23.3,13.2,31.8c7.8,7.8,20.6,13.7,31.8,13.2c11.6-0.5,23.7-4.3,31.8-13.2c7.9-8.6,13.7-19.8,13.2-31.8
				c-1.1-23.5-0.7-47.1,2.4-70.4c-0.5,4-1.1,8-1.6,12c2.5-18.6,6.8-36.9,14.1-54.3c-1.5,3.6-3,7.2-4.5,10.7
				c4.6-10.8,10.5-21.1,17.7-30.4c-2.3,3-4.7,6.1-7,9.1c6.2-7.9,13.3-15,21.2-21.2c-3,2.3-6.1,4.7-9.1,7
				c9.3-7.1,19.5-12.9,30.2-17.5c-3.6,1.5-7.2,3-10.7,4.5c17-7.1,35.1-11.2,53.3-13.7c-4,0.5-8,1.1-12,1.6
				c42.7-5.7,86.2-3.2,128.9,0.2c13.7,1.1,27.4,2.3,41.1,3.5c10.9,1,24.4-5.7,31.8-13.2c7.8-7.8,13.7-20.6,13.2-31.8
				c-0.5-11.6-4.3-23.7-13.2-31.8C490.9,483.5,480.9,480,468.4,478.8L468.4,478.8z"/>
		</g>
	</g>
</g>
</svg>
